<?xml version="1.0" encoding="UTF-8" standalone="no"?>
<!-- Created with Inkscape (http://www.inkscape.org/) -->

<svg
   width="512"
   height="512"
   viewBox="0 0 135.46666 135.46667"
   version="1.1"
   id="svg167"
   inkscape:version="1.2.2 (732a01da63, 2022-12-09)"
   sodipodi:docname="qrcodechef-yellow.svg"
   xmlns:inkscape="http://www.inkscape.org/namespaces/inkscape"
   xmlns:sodipodi="http://sodipodi.sourceforge.net/DTD/sodipodi-0.dtd"
   xmlns="http://www.w3.org/2000/svg"
   xmlns:svg="http://www.w3.org/2000/svg">
  <sodipodi:namedview
     id="namedview169"
     pagecolor="#ffeb3b"
     bordercolor="#000000"
     borderopacity="0.25"
     inkscape:showpageshadow="2"
     inkscape:pageopacity="0"
     inkscape:pagecheckerboard="0"
     inkscape:deskcolor="#d1d1d1"
     inkscape:document-units="mm"
     showgrid="false"
     inkscape:zoom="0.71624579"
     inkscape:cx="292.49736"
     inkscape:cy="337.87284"
     inkscape:window-width="1920"
     inkscape:window-height="991"
     inkscape:window-x="-9"
     inkscape:window-y="-9"
     inkscape:window-maximized="1"
     inkscape:current-layer="layer1" />
  <defs
     id="defs164" />
  <g
     inkscape:label="Layer 1"
     inkscape:groupmode="layer"
     id="layer1">
    <path
       style="display:inline;fill:#f86942;fill-opacity:1;stroke-width:0.0886094"
       d="m 113.72848,118.38743 c -0.30389,-0.12616 -6.44409,-2.42608 -7.63972,-2.86133 -4.23775,-1.54271 -9.012021,-2.95388 -13.370671,-3.95204 -4.568976,-1.04633 -7.400962,-1.51379 -13.465475,-2.22255 -1.105305,-0.12907 -1.829723,-0.25355 -1.829723,-0.31394 0,-0.0549 0.223286,-1.19615 0.495668,-2.53552 1.554557,-7.638407 1.545018,-7.586807 1.448382,-7.749167 -0.05559,-0.0864 -0.345575,-0.51646 -0.653173,-0.95479 -1.989631,-2.83464 -3.593199,-6.55153 -4.154554,-9.62899 -0.404866,-2.22089 -0.443788,-5.08794 -0.09539,-7.017893 0.794002,-4.393402 3.109664,-7.922484 6.481799,-9.879552 2.935842,-1.70387 6.077758,-1.958249 9.304986,-0.753256 0.89683,0.335001 2.319,1.160421 2.91788,1.694039 l 0.4095,0.365161 0.65873,-0.644361 c 1.93561,-1.892103 4.65143,-3.462462 7.032221,-4.066024 1.05119,-0.266687 3.35554,-0.244189 4.50272,0.04325 1.46079,0.366239 3.14969,1.178183 4.21385,2.025819 2.17456,1.732065 3.38983,3.840572 3.87475,6.722394 0.0834,0.52249 0.17141,0.962626 0.18438,0.978181 0.01,0.01347 0.35021,-0.09946 0.74675,-0.255252 3.38472,-1.328493 6.88323,-1.222884 9.62665,0.290455 2.77613,1.531357 4.92881,4.513103 5.72874,7.935089 0.16121,0.68621 0.18623,1.02518 0.18438,2.46643 -0.002,1.54315 -0.0185,1.73517 -0.22422,2.51086 -0.12229,0.462 -0.33631,1.10097 -0.47529,1.42012 -0.13896,0.31907 -0.22235,0.61042 -0.18436,0.64733 0.0371,0.037 0.32704,0.27658 0.64391,0.53265 1.1442,0.92518 2.29786,2.52437 2.87553,3.98579 0.94863,2.40022 0.82827,5.332157 -0.32798,7.994377 -1.48608,3.42026 -4.4942,5.93626 -8.26221,6.91063 -1.75552,0.45391 -2.93234,0.56578 -5.26283,0.50027 -1.15328,-0.0341 -2.25181,-0.0846 -2.4411,-0.11666 l -0.34464,-0.0567 -0.0927,0.4152 c -0.39468,1.77965 -0.99857,3.41647 -1.743,4.72368 -0.47992,0.84193 -0.56051,0.93144 -0.7662,0.84597 z m 0.57257,-1.26362 c 0.64947,-1.80053 1.10752,-3.72663 1.23325,-5.18585 l 0.0556,-0.62663 -1.13624,-1.28299 c -3.12012,-3.52348 -6.66829,-5.66554 -11.91629,-7.1942 -5.212591,-1.51832 -12.832114,-2.64178 -18.123089,-2.67205 l -1.767839,-0.0103 -0.670769,2.9122 c -0.368742,1.6017 -0.657811,2.92777 -0.642056,2.94683 0.01853,0.0207 1.20536,0.26318 2.643725,0.54256 8.249627,1.60198 15.933437,4.12288 23.156978,7.59725 1.82973,0.88008 5.9311,3.1485 6.51274,3.60214 0.13527,0.10575 0.27054,0.19576 0.30019,0.19918 0.0279,0.004 0.189,-0.36894 0.35484,-0.82843 z m 4.1968,-5.37405 c 4.98486,-0.58739 7.73458,-1.712 10.22405,-4.18145 1.02525,-1.01709 2.09507,-2.97551 2.48651,-4.55189 0.23718,-0.95495 0.29463,-2.49608 0.12507,-3.331057 -0.35577,-1.74808 -1.70557,-3.63841 -3.22167,-4.51087 l -0.58275,-0.33527 -0.53551,0.34157 c -0.83662,0.5341 -1.65619,0.82699 -2.48345,0.88755 -0.96206,0.0702 -0.92695,-0.0522 0.21216,-0.73822 1.15635,-0.69684 1.67379,-1.11054 2.22885,-1.78162 0.61518,-0.74408 0.91166,-1.27186 1.20406,-2.14222 1.12596,-3.35549 -0.30574,-7.60617 -3.35647,-9.960562 -1.27865,-0.986998 -2.4287,-1.38998 -4.16743,-1.460309 -2.00511,-0.08098 -3.8842,0.387568 -5.63119,1.404546 -1.04174,0.606462 -1.12076,0.687469 -1.18608,1.215863 -0.16399,1.323942 -0.9692,4.616182 -1.21499,4.966382 -0.21865,0.31151 -0.25202,0.0904 -0.20198,-1.33671 0.0277,-0.80088 0.0927,-2.10062 0.13897,-2.88834 0.21123,-3.451219 -0.18066,-6.191021 -1.17052,-8.190197 -0.8709,-1.758221 -2.73369,-3.266285 -4.87731,-3.947709 -0.7486,-0.237978 -0.95002,-0.261117 -2.34067,-0.267688 -1.4179,-0.0064 -1.57615,0.01027 -2.32789,0.254636 -1.945721,0.631578 -4.676441,2.579149 -5.890421,4.2011 l -0.26682,0.357152 0.21679,0.954426 c 0.32612,1.433268 0.37616,3.496741 0.0833,3.563695 -0.0463,0.01027 -0.12971,-0.217725 -0.18715,-0.506191 -0.39468,-1.958236 -0.94232,-3.491133 -1.56381,-4.37505 -0.47992,-0.682066 -1.56206,-1.702894 -2.24303,-2.115078 -1.45652,-0.881606 -2.985974,-1.277299 -4.927419,-1.274822 -1.7859,0.0013 -2.977836,0.326005 -4.522746,1.228235 -4.193368,2.449079 -6.207086,7.593413 -5.212139,13.315861 0.18715,1.07754 0.729152,2.89003 1.185169,3.96254 0.733778,1.72773 2.112111,4.04729 3.152459,5.3064 0.276087,0.33429 0.29648,0.34185 0.968923,0.35912 2.821252,0.0729 7.847343,0.76273 11.689023,1.60439 0.62445,0.13665 1.15152,0.22872 1.17247,0.2046 0.0185,-0.0242 -0.12786,-0.33744 -0.33076,-0.69594 -0.75786,-1.33921 -1.18665,-2.85402 -1.25427,-4.42787 -0.0556,-1.35819 0.0463,-1.38233 0.44285,-0.10242 0.59574,1.92029 1.3649,3.37959 2.40618,4.56534 1.03701,1.1811 1.31728,1.35334 2.96671,1.82375 2.725711,0.77738 6.148251,2.184907 8.152341,3.352527 0.7625,0.44437 0.84403,0.47083 1.4468,0.46902 1.39056,-0.004 3.25058,-0.43247 4.62039,-1.06428 0.60129,-0.27767 2.18187,-1.16543 2.35031,-1.32065 0.0464,-0.0414 0.22142,-0.14257 0.39098,-0.22421 0.49659,-0.23869 0.39839,0.046 -0.28814,0.83724 -1.31311,1.5137 -2.9252,2.5129 -5.31201,3.29231 -0.17325,0.0567 -0.11213,0.13446 0.61703,0.77487 1.03054,0.90584 2.63234,2.75547 3.34722,3.86507 0.30389,0.47272 0.74582,1.31558 0.9817,1.87314 0.39097,0.92546 0.44564,1.01072 0.63372,0.97853 0.11297,-0.0207 0.94566,-0.12282 1.85019,-0.22907 z"
       id="path8372"
       sodipodi:nodetypes="ssssscssssssscssssssssscssssssssscsssssscssscssssssssssssscssssssssssssssccscsssssssssscsssssssscssssssssss"
       inkscape:label="hat" />
    <path
       d="m 67.051436,84.670363 c -1.738456,0.0828 -1.822026,-0.0216 -1.837877,-2.291226 -0.0084,-1.003912 -0.03706,-4.247135 -0.06479,-7.207166 -0.02773,-2.960031 0.02785,-5.485868 0.131565,-5.612987 0.0991,-0.127055 0.344655,-0.299631 0.544775,-0.383064 0.385418,-0.161385 0.383565,0.237169 0.1297,-24.74045 l -0.04638,-4.948786 -2.149634,-0.673698 c -3.03304,-0.950601 -3.609959,-1.216174 -4.288247,-1.97395 -0.42618,-0.476315 -0.592017,-0.79629 -0.665211,-1.28922 -0.152866,-1.019452 -0.199199,-10.042812 -0.05559,-10.521286 0.289989,-0.959093 1.279007,-1.720145 2.575444,-1.98229 1.078708,-0.218176 9.992157,-0.687111 10.698693,-0.562992 0.830126,0.145902 1.731235,0.713933 2.068754,1.30372 0.177886,0.310434 0.269608,1.843391 0.30388,5.077241 0.06491,5.741158 0.01853,6.333249 -0.556813,7.095768 -0.639283,0.851644 -1.105855,1.131897 -3.82954,2.300895 -1.349798,0.579373 -2.502537,1.087502 -2.561457,1.129276 -0.05559,0.04145 -0.09264,1.776163 -0.07412,3.854177 0.01853,2.078013 0.06479,7.178931 0.105553,11.335318 0.149161,15.992238 0.09264,14.439294 0.538296,14.493414 0.217717,0.02605 0.495669,0.160128 0.617037,0.297296 0.140829,0.159396 0.240883,2.202476 0.275167,5.665554 0.07411,7.37262 0.07411,8.801726 -0.0096,9.008126 -0.162143,0.39586 -0.680046,0.57109 -1.84909,0.62662 z M 72.360103,33.64829 c -0.0096,-0.298822 -0.02773,-2.249204 -0.04626,-4.334183 -0.03706,-3.877821 -0.139896,-4.396403 -0.818089,-4.035593 -0.238097,0.126554 -0.302027,0.506198 -0.310371,1.843355 -0.01853,3.106401 0.06491,7.141824 0.153799,7.239598 0.139897,0.157602 0.592949,0.148511 0.825501,-0.0153 0.119539,-0.0846 0.208464,-0.397739 0.199199,-0.696561 z M 68.87272,29.990698 c -0.03706,-3.816095 -0.09264,-4.441777 -0.363183,-4.540019 -0.628154,-0.226458 -0.798629,0.260479 -0.772689,2.203805 0.01853,1.028758 0.03706,2.995188 0.05559,4.369861 0.01853,1.374654 0.05559,2.535686 0.0991,2.58005 0.126938,0.143741 0.589255,0.124565 0.81253,-0.0333 0.140829,-0.09946 0.201053,-1.723691 0.170475,-4.580116 z m -3.422438,2.565415 c -0.0084,-1.146217 -0.01853,-3.146039 -0.02785,-4.44408 -0.01853,-1.881771 -0.07411,-2.376447 -0.294628,-2.440721 -0.152866,-0.0441 -0.405799,-0.0135 -0.561451,0.06751 -0.223287,0.117006 -0.27794,0.67901 -0.258491,2.661274 0.01853,1.382088 0.03706,3.378194 0.04638,4.435771 0.01853,1.610509 0.06491,1.940887 0.326115,2.033793 0.650399,0.234466 0.789363,-0.181274 0.774541,-2.313757 z M 62.00885,31.701319 c -0.02773,-5.556698 -0.03706,-5.660394 -0.336323,-5.83498 -0.199188,-0.115299 -0.354839,-0.0909 -0.551254,0.08551 -0.21217,0.191174 -0.26405,1.234027 -0.231619,4.644409 0.03706,3.721182 0.09264,4.414837 0.347428,4.507985 0.671702,0.242477 0.788444,-0.269301 0.771768,-3.403145 z"
       style="display:inline;fill:#f86942;fill-opacity:1;stroke-width:0.146179"
       id="path49707"
       inkscape:label="spoon" />
    <path
       style="fill:#352245;fill-opacity:1;stroke-width:1.9986"
       d="m 5.3408664,129.26109 c -3.367131,-3.29521 -4.040593,-6.59041 -4.040593,-19.77126 0,-21.554807 2.218193,-23.725527 24.2436466,-23.725527 22.025455,0 24.243549,2.17072 24.243549,23.725527 0,21.55479 -2.218094,23.72551 -24.243549,23.72551 -13.468699,0 -16.8358326,-0.65903 -20.2030536,-3.95425 z M 37.6657,109.48983 V 97.627063 H 25.54392 13.422139 v 11.862767 11.86275 H 25.54392 37.6657 Z m -18.182671,0 c 0,-5.27236 0.673555,-5.9314 6.060891,-5.9314 5.387419,0 6.06089,0.65903 6.06089,5.9314 0,5.27234 -0.673554,5.93138 -6.06089,5.93138 -5.387516,0 -6.060891,-0.65903 -6.060891,-5.93138 z m -6.06089,-41.519673 c 0,-5.272352 0.673554,-5.931381 6.06089,-5.931381 5.387432,0 6.060891,0.659029 6.060891,5.931381 0,5.272339 -0.673555,5.931369 -6.060891,5.931369 -5.387515,0 -6.06089,-0.65903 -6.06089,-5.931369 z m 24.243561,0 c 0,-5.272352 0.673555,-5.931381 6.060879,-5.931381 5.387432,0 6.06089,0.659029 6.06089,5.931381 0,5.272339 -0.673554,5.931369 -6.06089,5.931369 -5.387515,0 -6.060879,-0.65903 -6.060879,-5.931369 z M 5.3408664,46.221758 c -3.367131,-3.295224 -4.040593,-6.590424 -4.040593,-19.771276 0,-21.5548013 2.218193,-23.7255293 24.2436466,-23.7255293 22.025455,0 24.243549,2.170728 24.243549,23.7255293 0,13.180852 -0.673554,16.476052 -4.040585,19.771276 -3.367223,3.295212 -6.73435,3.954255 -20.202964,3.954255 -13.468699,0 -16.8358326,-0.65903 -20.2030536,-3.954255 z M 37.6657,26.450482 V 14.587717 H 25.54392 13.422139 V 26.450482 38.313247 H 25.54392 37.6657 Z m -18.182671,0 c 0,-5.272349 0.673555,-5.931387 6.060891,-5.931387 5.387419,0 6.06089,0.659029 6.06089,5.931387 0,5.27234 -0.673554,5.931378 -6.06089,5.931378 -5.387516,0 -6.060891,-0.659029 -6.060891,-5.931378 z m 70.71038,19.771276 c -3.367138,-3.295224 -4.040597,-6.590424 -4.040597,-19.771276 0,-21.5548013 2.21819,-23.7255293 24.243648,-23.7255293 22.02546,0 24.24357,2.170728 24.24357,23.7255293 0,21.554805 -2.21811,23.725531 -24.24357,23.725531 -13.468701,0 -16.835831,-0.65903 -20.203051,-3.954255 z M 122.51825,26.450482 V 14.587717 H 110.39646 98.274589 v 11.862765 11.862765 h 12.121871 12.12179 z m -18.18277,0 c 0,-5.272349 0.67356,-5.931387 6.06098,-5.931387 5.38744,0 6.06089,0.659029 6.06089,5.931387 0,5.27234 -0.67355,5.931378 -6.06089,5.931378 -5.38752,0 -6.06098,-0.659029 -6.06098,-5.931378 z"
       id="path50493"
       sodipodi:nodetypes="sssssscccccccccsssssssssssssssssssssscccccccccssssssssssscccccccccsssss"
       inkscape:label="qrcode" />
  </g>
</svg>
